<svg width="480" height="410" viewBox="0 0 480 410" role="img" xmlns="http://www.w3.org/2000/svg">
  <title>Silkway Web Company — logo v3, mosaic S</title>
  <g transform="translate(130, 20)">
    <rect x="0" y="0" width="220" height="220" rx="50" fill="#1C3A70"/>
    <g transform="translate(55.4, 35.4) scale(0.66)">
      <rect x="34" y="0" width="30" height="30" rx="6" fill="#C9A227"/>
      <rect x="68" y="0" width="30" height="30" rx="6" fill="#C9A227"/>
      <rect x="102" y="0" width="30" height="30" rx="6" fill="#C9A227"/>
      <rect x="136" y="0" width="30" height="30" rx="6" fill="#D9B545"/>
      <rect x="0" y="34" width="30" height="30" rx="6" fill="#C9A227"/>
      <rect x="0" y="68" width="30" height="30" rx="6" fill="#C9A227"/>
      <rect x="34" y="102" width="30" height="30" rx="6" fill="#C9A227"/>
      <rect x="68" y="102" width="30" height="30" rx="6" fill="#C9A227"/>
      <rect x="102" y="102" width="30" height="30" rx="6" fill="#C9A227"/>
      <rect x="136" y="136" width="30" height="30" rx="6" fill="#C9A227"/>
      <rect x="136" y="170" width="30" height="30" rx="6" fill="#F7F4EE"/>
      <rect x="0" y="204" width="30" height="30" rx="6" fill="#D9B545"/>
      <rect x="34" y="204" width="30" height="30" rx="6" fill="#C9A227"/>
      <rect x="68" y="204" width="30" height="30" rx="6" fill="#C9A227"/>
      <rect x="102" y="204" width="30" height="30" rx="6" fill="#C9A227"/>
    </g>
  </g>
  <text x="240" y="330" text-anchor="middle" font-family="Avenir Next, Futura, Century Gothic, sans-serif" font-size="34" font-weight="500" letter-spacing="11" fill="#1C3A70">SILKWAY</text>
  <text x="240" y="360" text-anchor="middle" font-family="Avenir Next, Futura, Century Gothic, sans-serif" font-size="12.5" font-weight="400" letter-spacing="8.5" fill="#C9A227">WEB COMPANY</text>
</svg>
